<?xml version="1.0" standalone="no"?>
<!DOCTYPE svg PUBLIC "-//W3C//DTD SVG 20010904//EN"
 "http://www.w3.org/TR/2001/REC-SVG-20010904/DTD/svg10.dtd">
<svg version="1.0" xmlns="http://www.w3.org/2000/svg"
 width="62.000000pt" height="62.000000pt" viewBox="0 0 62.000000 62.000000"
 preserveAspectRatio="xMidYMid meet">

<g transform="translate(0.000000,62.000000) scale(0.100000,-0.100000)"
fill="#000000" stroke="none">
<path d="M0 340 l0 -280 30 0 c27 0 30 -3 30 -30 l0 -30 280 0 280 0 0 280 0
280 -30 0 c-27 0 -30 3 -30 30 l0 30 -280 0 -280 0 0 -280z m530 0 l0 -250
-250 0 -250 0 0 250 0 250 250 0 250 0 0 -250z m60 -60 l0 -250 -250 0 c-216
0 -250 2 -250 15 0 13 33 15 235 15 l235 0 0 235 c0 202 2 235 15 235 13 0 15
-34 15 -250z"/>
<path d="M140 340 l0 -90 40 0 c55 0 90 34 90 88 0 60 -30 92 -86 92 l-44 0 0
-90z m85 0 c0 -49 -2 -55 -22 -58 -22 -3 -23 0 -23 58 0 58 1 61 23 58 20 -3
22 -9 22 -58z"/>
<path d="M304 398 c-18 -35 -15 -108 6 -133 15 -18 51 -20 68 -3 9 9 12 9 12
0 0 -7 7 -12 15 -12 11 0 15 12 15 50 0 49 -1 50 -30 50 -20 0 -30 -5 -30 -15
0 -8 7 -15 16 -15 9 0 14 -7 12 -17 -2 -12 -12 -18 -28 -18 -24 0 -25 3 -25
55 0 49 2 55 23 58 12 2 22 -1 22 -7 0 -6 9 -11 20 -11 11 0 20 4 20 8 0 19
-38 42 -68 42 -25 0 -35 -6 -48 -32z"/>
</g>
</svg>
