<svg width="28" height="35" viewBox="0 0 28 35" fill="none" xmlns="http://www.w3.org/2000/svg">
<g id="Group">
<path id="Vector" d="M23.0277 31.3148H4.6066C4.09081 31.3148 3.68555 30.9095 3.68555 30.3937C3.68555 29.8779 4.09081 29.4727 4.6066 29.4727H23.0277C23.5434 29.4727 23.9487 29.8779 23.9487 30.3937C23.9487 30.9095 23.5434 31.3148 23.0277 31.3148Z" fill="#567EA8"/>
<path id="Vector_2" d="M26.7105 3.68421C26.1947 3.68421 25.7895 4.08947 25.7895 4.60526V32.2368C25.7895 32.7526 25.3842 33.1579 24.8684 33.1579H4.60526C3.07632 33.1579 1.84211 31.9237 1.84211 30.3947C1.84211 28.8658 3.07632 27.6316 4.60526 27.6316H21.1842C22.7132 27.6316 23.9474 26.3974 23.9474 24.8684V2.76316C23.9474 1.23421 22.7132 0 21.1842 0H2.76316C1.23421 0 0 1.23421 0 2.76316V30.3947C0 32.9368 2.06316 35 4.60526 35H24.8684C26.3974 35 27.6316 33.7658 27.6316 32.2368V4.60526C27.6316 4.08947 27.2263 3.68421 26.7105 3.68421ZM2.76316 1.84211H21.1842C21.7 1.84211 22.1053 2.24737 22.1053 2.76316V24.8684C22.1053 25.3842 21.7 25.7895 21.1842 25.7895H4.60526C3.57368 25.7895 2.61579 26.1395 1.84211 26.7105V2.76316C1.84211 2.24737 2.24737 1.84211 2.76316 1.84211Z" fill="#567EA8"/>
</g>
</svg>
