<svg width="34" height="35" viewBox="0 0 34 35" fill="none" xmlns="http://www.w3.org/2000/svg">
<path id="Vector" d="M33.2922 13.1103C33.2922 11.6575 32.1195 10.4848 30.6667 10.4848C29.2138 10.4848 28.0411 11.6575 28.0411 13.1103C28.0411 14.073 28.5662 14.9133 29.3363 15.3684C28.8462 17.3288 27.5685 22.6499 26.8333 27.7785C25.8006 27.411 24.3653 27.166 22.7899 26.9909C22.8775 22.3174 23.9627 13.0227 24.2778 10.4147C25.4155 10.1346 26.2732 9.10196 26.2732 7.85919C26.2732 6.40638 25.1004 5.23362 23.6476 5.23362C22.1948 5.23362 21.022 6.40638 21.022 7.85919C21.022 8.90942 21.6347 9.81959 22.5274 10.2397C22.1948 12.9178 21.1271 22.0197 21.022 26.8333C19.8493 26.7457 18.659 26.6933 17.5213 26.6933V5.09367C18.5365 4.72609 19.2717 3.76332 19.2717 2.62557C19.2717 1.17276 18.0989 0 16.6461 0C15.1933 0 14.0205 1.17276 14.0205 2.62557C14.0205 3.76332 14.7557 4.74359 15.7709 5.09367V26.6933C14.6331 26.6933 13.4254 26.7632 12.2701 26.8333C12.1651 22.0197 11.0974 12.9178 10.7648 10.2397C11.6575 9.81959 12.2701 8.90942 12.2701 7.85919C12.2701 6.40638 11.0974 5.23362 9.64456 5.23362C8.19175 5.23362 7.01899 6.40638 7.01899 7.85919C7.01899 9.08446 7.8767 10.1346 9.01445 10.4147C9.32952 13.0227 10.4148 22.3349 10.5023 26.9909C8.92694 27.166 7.50914 27.4285 6.45891 27.7785C5.72375 22.6499 4.44593 17.3288 3.95582 15.3684C4.72599 14.9133 5.25114 14.073 5.25114 13.1103C5.25114 11.6575 4.07839 10.4848 2.62557 10.4848C1.17276 10.4848 0 11.6575 0 13.1103C0 14.4231 0.962707 15.5083 2.24049 15.7009C2.88813 18.3089 5.25114 28.2161 5.25114 34.1149C5.25114 34.4125 5.40866 34.6926 5.67122 34.8501C5.93377 35.0077 6.24883 35.025 6.52889 34.885C7.9817 34.1498 12.0601 33.6598 16.6461 33.6598C21.2321 33.6598 25.293 34.1498 26.7633 34.885C26.8858 34.955 27.0258 34.9726 27.1484 34.9726C27.3059 34.9726 27.4635 34.9201 27.6035 34.8326C27.866 34.6751 28.0236 34.3949 28.0236 34.0974C28.0236 28.1986 30.3866 18.3089 31.0342 15.6833C32.2945 15.4908 33.2747 14.4056 33.2747 13.0928L33.2922 13.1103ZM23.6651 6.984C24.1552 6.984 24.5403 7.36909 24.5403 7.85919C24.5403 8.3493 24.1552 8.73438 23.6651 8.73438C23.175 8.73438 22.7899 8.3493 22.7899 7.85919C22.7899 7.36909 23.175 6.984 23.6651 6.984ZM9.66208 6.984C10.1522 6.984 10.5373 7.36909 10.5373 7.85919C10.5373 8.3493 10.1522 8.73438 9.66208 8.73438C9.17198 8.73438 8.78689 8.3493 8.78689 7.85919C8.78689 7.36909 9.17198 6.984 9.66208 6.984ZM16.6636 1.73286C17.1537 1.73286 17.5388 2.11794 17.5388 2.60805C17.5388 3.09816 17.1537 3.48324 16.6636 3.48324C16.1735 3.48324 15.7884 3.09816 15.7884 2.60805C15.7884 2.11794 16.1735 1.73286 16.6636 1.73286ZM1.78537 13.1103C1.78537 12.6202 2.17045 12.2351 2.66056 12.2351C3.15067 12.2351 3.53575 12.6202 3.53575 13.1103C3.53575 13.6004 3.15067 13.9855 2.66056 13.9855C2.17045 13.9855 1.78537 13.6004 1.78537 13.1103ZM16.6636 31.9269C13.3904 31.9269 9.43455 32.1896 7.00152 32.8722C6.94901 31.8395 6.86149 30.7192 6.72146 29.564C8.3143 28.8813 12.2351 28.4262 16.6636 28.4262C21.0921 28.4262 25.0129 28.8813 26.6058 29.564C26.4657 30.7192 26.3782 31.8395 26.3257 32.8722C23.8927 32.1896 19.9368 31.9269 16.6636 31.9269ZM30.6667 13.9855C30.1765 13.9855 29.7915 13.6004 29.7915 13.1103C29.7915 12.6202 30.1765 12.2351 30.6667 12.2351C31.1568 12.2351 31.5418 12.6202 31.5418 13.1103C31.5418 13.6004 31.1568 13.9855 30.6667 13.9855Z" fill="#567EA8"/>
</svg>
