<svg width="37" height="35" viewBox="0 0 37 35" fill="none" xmlns="http://www.w3.org/2000/svg">
<g id="Group">
<path id="Vector" d="M0.972228 35C0.42778 35 0 34.5722 0 34.0277V4.8609C0 4.31645 0.42778 3.88867 0.972228 3.88867C1.51668 3.88867 1.94446 4.31645 1.94446 4.8609V34.0277C1.94446 34.5722 1.51668 35 0.972228 35Z" fill="#567EA8"/>
<path id="Vector_2" d="M4.85817 17.5001C4.66373 17.5001 4.44983 17.4417 4.27483 17.3056C3.84705 16.9751 3.74985 16.3723 4.0804 15.9446C4.21652 15.7696 7.34708 11.6667 11.6638 11.6667C14.9499 11.6667 17.1277 12.8334 19.0527 13.864C20.7638 14.7779 22.2222 15.5556 24.3027 15.5556C28.5611 15.5556 31.6139 11.5112 33.3444 8.32226C31.9833 9.10005 30.2528 9.72227 28.1916 9.72227C23.8944 9.72227 21.6777 7.50561 19.7332 5.54171C17.7888 3.6167 16.136 1.94445 12.636 1.94445C8.3193 1.94445 5.65539 5.40556 5.63594 5.44445C5.30539 5.87223 4.70261 5.96946 4.27483 5.63891C3.84705 5.30835 3.74985 4.7056 4.0804 4.27782C4.21652 4.10282 7.34708 0 12.636 0C16.9332 0 19.1499 2.21667 21.0944 4.18057C23.0388 6.10558 24.6916 7.77782 28.1916 7.77782C32.5083 7.77782 35.1722 4.31671 35.1917 4.27782C35.4834 3.88893 36.0084 3.77224 36.4167 4.00557C36.8445 4.21946 37.0389 4.72503 36.8833 5.17226C36.8445 5.28892 35.8528 8.24449 33.85 11.2389C32.6639 13.0278 31.3611 14.4473 29.9806 15.4778C28.1917 16.8195 26.2861 17.5001 24.3027 17.5001C21.736 17.5001 19.9083 16.5279 18.1388 15.5751C16.2527 14.564 14.4638 13.6112 11.6638 13.6112C8.29986 13.6112 5.65539 17.0723 5.63594 17.1112C5.4415 17.364 5.14984 17.5001 4.85817 17.5001Z" fill="#567EA8"/>
</g>
</svg>
