<svg width="40" height="35" viewBox="0 0 40 35" fill="none" xmlns="http://www.w3.org/2000/svg">
<path id="Vector" d="M19.5382 35C19.3735 35 19.1882 34.9588 19.0441 34.8765C18.8588 34.7735 14.2471 32.2 9.59412 27.9794C6.83529 25.4882 4.63235 22.9353 3.04706 20.4029C1.02941 17.1706 0 13.9382 0 10.8088C0 4.85882 4.83824 0 10.8088 0C12.8265 0 14.9676 0.761762 16.8412 2.12059C17.9324 2.92353 18.8588 3.89121 19.5588 4.92062C20.2382 3.89121 21.1853 2.92353 22.2765 2.12059C24.15 0.741174 26.2912 0 28.3088 0C34.2588 0 39.1177 4.85882 39.1177 10.8088C39.1177 13.9382 38.0882 17.1706 36.0706 20.4029C34.4853 22.9353 32.2824 25.4882 29.5235 27.9794C24.85 32.2 20.2588 34.7529 20.0735 34.8765C19.9088 34.9588 19.7441 35 19.5794 35H19.5382ZM10.7882 2.05882C5.97059 2.05882 2.03824 5.99118 2.03824 10.8088C2.03824 17.0676 6.87647 22.75 10.9324 26.4147C14.5559 29.6882 18.2206 31.9941 19.5382 32.7765C20.8353 31.9941 24.5206 29.6882 28.1441 26.4147C32.2 22.75 37.0382 17.0676 37.0382 10.8088C37.0382 5.99118 33.1059 2.05882 28.2882 2.05882C24.7882 2.05882 21.3706 4.94118 20.5059 7.5353C20.3618 7.94707 19.9706 8.23529 19.5382 8.23529C19.1059 8.23529 18.6941 7.94707 18.5706 7.5353C17.7059 4.94118 14.3088 2.05882 10.7882 2.05882Z" fill="#567EA8"/>
</svg>
