<svg width="18" height="26" viewBox="0 0 18 26" fill="none" xmlns="http://www.w3.org/2000/svg">
<g id="hourglass">
<path id="Vector" d="M14.0441 21.1876C11.0697 20.1347 9.21398 17.5946 9.21398 14.5675V10.5796C10.0037 10.5006 10.767 10.2901 11.4777 9.93472C11.8067 9.77679 11.9383 9.38205 11.7804 9.05302C11.6225 8.72399 11.2276 8.59224 10.8986 8.75018C10.1747 9.11869 9.38507 9.30301 8.55591 9.30301C7.72676 9.30301 6.95025 9.11869 6.21322 8.75018C5.88418 8.59224 5.48935 8.72399 5.33141 9.05302C5.17348 9.38205 5.30509 9.77679 5.63412 9.93472C6.34482 10.2901 7.10818 10.5138 7.89785 10.5796V14.5675C7.89785 17.5946 6.05528 20.1347 3.06768 21.1876C2.79129 21.2798 2.60703 21.5562 2.63336 21.8457C2.64652 22.1352 2.8571 22.3853 3.14664 22.4511C4.43645 22.7406 6.41063 23.1223 8.55591 23.1223C10.7012 23.1223 12.6754 22.7406 13.9652 22.4511C14.2547 22.3853 14.4653 22.1352 14.4785 21.8457C14.4916 21.5562 14.3205 21.2798 14.0441 21.1876ZM8.55591 21.8062C7.39773 21.8062 6.3185 21.6878 5.34457 21.5298C6.22637 20.9771 6.97657 20.2794 7.59515 19.4503C7.97683 18.937 8.30585 18.3842 8.55591 17.8051C8.80598 18.3842 9.12184 18.937 9.51668 19.4503C10.1353 20.2663 10.8855 20.9639 11.7673 21.5298C10.7933 21.6878 9.7141 21.8062 8.55591 21.8062Z" fill="#567EA8"/>
<path id="Vector_2" d="M17.1096 4.04276V3.3847C17.1096 2.87141 16.7937 2.42392 16.162 2.0554C15.7145 1.79218 15.0828 1.55524 14.2931 1.35782C12.7532 0.976141 10.7132 0.765625 8.5548 0.765625C6.39636 0.765625 4.35637 0.976141 2.8165 1.35782C2.02683 1.55524 1.39509 1.79218 0.947611 2.0554C0.315871 2.42392 0 2.87141 0 3.3847V4.04276C0 7.50417 2.09264 10.6234 5.2645 11.9395V14.5718C2.09264 15.8879 0 19.0071 0 22.4685V23.1266C0 23.6398 0.315871 24.0873 0.947611 24.4559C1.39509 24.7191 2.02683 24.956 2.8165 25.1534C4.35637 25.5351 6.39636 25.7456 8.5548 25.7456C10.7132 25.7456 12.7532 25.5351 14.2931 25.1534C15.0828 24.956 15.7145 24.7191 16.162 24.4559C16.7937 24.0873 17.1096 23.6398 17.1096 23.1266V22.4685C17.1096 19.0071 15.017 15.8879 11.8451 14.5718V11.9395C15.017 10.6234 17.1096 7.50417 17.1096 4.04276ZM3.43508 2.55553C4.84334 2.23966 6.65959 2.06857 8.5548 2.06857C10.45 2.06857 12.2663 2.23966 13.6745 2.55553C15.1881 2.89773 15.6487 3.25309 15.7672 3.3847C15.6487 3.51631 15.1881 3.87167 13.6745 4.21386C12.2663 4.52973 10.45 4.70082 8.5548 4.70082C6.65959 4.70082 4.84334 4.52973 3.43508 4.21386C1.92154 3.87167 1.4609 3.51631 1.34245 3.3847C1.4609 3.25309 1.92154 2.89773 3.43508 2.55553ZM10.9633 15.6379C13.8456 16.6645 15.7935 19.4019 15.7935 22.4685V23.087C15.7408 23.166 15.3723 23.5739 13.6745 23.9556C12.2663 24.2714 10.45 24.4427 8.5548 24.4427C6.65959 24.4427 4.84334 24.2714 3.43508 23.9556C1.73728 23.5739 1.36877 23.166 1.31612 23.087V22.4685C1.31612 19.4019 3.25082 16.6645 6.1463 15.6379C6.40952 15.5458 6.58062 15.2957 6.58062 15.0194V11.4919C6.58062 11.2155 6.40952 10.9655 6.1463 10.8734C3.54037 9.95208 1.71097 7.63585 1.38193 4.9378C1.77677 5.12205 2.26373 5.27997 2.8165 5.41158C4.35637 5.79326 6.39636 6.00377 8.5548 6.00377C10.7132 6.00377 12.7532 5.79326 14.2931 5.41158C14.859 5.26681 15.3328 5.10889 15.7277 4.9378C15.3855 7.62269 13.5561 9.95208 10.9633 10.8734C10.7001 10.9655 10.529 11.2155 10.529 11.4919V15.0194C10.529 15.2957 10.7001 15.5458 10.9633 15.6379Z" fill="#567EA8"/>
</g>
</svg>
