<svg width="37" height="36" viewBox="0 0 37 36" fill="none" xmlns="http://www.w3.org/2000/svg">
<g id="Group">
<path id="Vector" d="M0.932105 20.358C0.711422 20.358 0.490746 20.2844 0.306844 20.1189C-0.0793505 19.7695 -0.0977424 19.1994 0.233282 18.8132L16.4718 0.86434C16.9684 0.312634 17.6488 0 18.3844 0C19.12 0 19.8005 0.312634 20.297 0.86434L36.5356 18.8132C36.885 19.1994 36.8482 19.7695 36.462 20.1189C36.0942 20.4683 35.5057 20.4315 35.1563 20.0453L18.9177 2.09648C18.7706 1.93097 18.5683 1.83902 18.366 1.83902C18.1637 1.83902 17.9614 1.93097 17.8143 2.09648L1.57576 20.0453C1.39186 20.2476 1.15279 20.358 0.89533 20.358H0.932105Z" fill="#567EA8"/>
<path id="Vector_2" d="M28.5229 35.0699H21.1668C20.6519 35.0699 20.2473 34.6653 20.2473 34.1504V27.7138H16.5693V34.1504C16.5693 34.6653 16.1647 35.0699 15.6498 35.0699H8.29369C6.7673 35.0699 5.53516 33.8378 5.53516 32.3114V17.5992C5.53516 17.0843 5.93974 16.6797 6.45467 16.6797C6.96959 16.6797 7.37418 17.0843 7.37418 17.5992V32.3114C7.37418 32.8263 7.77876 33.2309 8.29369 33.2309H14.7303V26.7943C14.7303 26.2794 15.1349 25.8748 15.6498 25.8748H21.1668C21.6818 25.8748 22.0864 26.2794 22.0864 26.7943V33.2309H28.5229C29.0379 33.2309 29.4424 32.8263 29.4424 32.3114V17.5992C29.4424 17.0843 29.847 16.6797 30.362 16.6797C30.8769 16.6797 31.2815 17.0843 31.2815 17.5992V32.3114C31.2815 33.8378 30.0493 35.0699 28.5229 35.0699Z" fill="#567EA8"/>
</g>
</svg>
