<svg width="47" height="35" viewBox="0 0 47 35" fill="none" xmlns="http://www.w3.org/2000/svg">
<g id="Group">
<path id="Vector" d="M43.1667 35H17.5C15.5633 35 14 33.4367 14 31.5C14 31.3833 14.0234 28.7233 16.1467 26.0866C17.3834 24.57 19.04 23.3799 21.1166 22.5399C23.6133 21.5133 26.7167 21 30.3333 21C33.95 21 37.0534 21.5133 39.55 22.5399C41.6267 23.3799 43.2833 24.5933 44.52 26.0866C46.6433 28.7 46.6667 31.3833 46.6667 31.5C46.6667 33.4367 45.1033 35 43.1667 35ZM16.3333 31.5C16.3333 32.1533 16.8467 32.6667 17.5 32.6667H43.1667C43.82 32.6667 44.3333 32.1533 44.3333 31.5C44.3333 31.4067 44.2634 29.4234 42.6067 27.4634C40.3434 24.7567 36.0967 23.3333 30.3333 23.3333C24.57 23.3333 20.3233 24.7567 18.06 27.4634C16.4033 29.4234 16.3333 31.43 16.3333 31.5Z" fill="#567EA8"/>
<path id="Vector_2" d="M30.3333 18.6667C25.1767 18.6667 21 14.49 21 9.33333C21 4.17667 25.1767 0 30.3333 0C35.49 0 39.6667 4.17667 39.6667 9.33333C39.6667 14.49 35.49 18.6667 30.3333 18.6667ZM30.3333 2.33333C26.4833 2.33333 23.3333 5.48333 23.3333 9.33333C23.3333 13.1833 26.4833 16.3333 30.3333 16.3333C34.1833 16.3333 37.3333 13.1833 37.3333 9.33333C37.3333 5.48333 34.1833 2.33333 30.3333 2.33333Z" fill="#567EA8"/>
<path id="Vector_3" d="M10.5 34.9987H3.5C1.56333 34.9987 0 33.4354 0 31.4987C0 31.4054 8.48373e-06 29.3287 1.54001 27.2987C2.42668 26.1321 3.61667 25.1987 5.11001 24.5221C6.88334 23.7287 9.09998 23.332 11.6433 23.332C12.0633 23.332 12.4833 23.3321 12.88 23.3554C13.5333 23.4021 14.0233 23.9386 13.9766 24.592C13.9533 25.2453 13.3933 25.7354 12.74 25.6887C12.39 25.6887 12.0166 25.6654 11.6433 25.6654C2.56664 25.6654 2.30998 31.2187 2.30998 31.4987C2.30998 32.1287 2.82331 32.6654 3.47664 32.6654H10.4766C11.13 32.6654 11.6433 33.1787 11.6433 33.832C11.6433 34.4854 11.13 34.9987 10.4766 34.9987H10.5Z" fill="#567EA8"/>
<path id="Vector_4" d="M11.668 21C7.81797 21 4.66797 17.85 4.66797 14C4.66797 10.15 7.81797 7 11.668 7C15.518 7 18.668 10.15 18.668 14C18.668 17.85 15.518 21 11.668 21ZM11.668 9.33333C9.1013 9.33333 7.0013 11.4333 7.0013 14C7.0013 16.5667 9.1013 18.6667 11.668 18.6667C14.2346 18.6667 16.3346 16.5667 16.3346 14C16.3346 11.4333 14.2346 9.33333 11.668 9.33333Z" fill="#567EA8"/>
</g>
</svg>
