<svg width="25" height="25" viewBox="0 0 25 25" fill="none" xmlns="http://www.w3.org/2000/svg">
<path d="M16.2358 8.08779C16.2358 7.87528 16.1858 6.95028 15.7983 6.01274C15.5358 5.37521 15.1608 4.85022 14.6858 4.4752C14.5608 4.3752 14.4358 4.28767 14.3108 4.21266C14.7358 3.76265 14.9983 3.16263 14.9983 2.5001C14.9983 1.12505 13.8733 0 12.4982 0C11.1231 0 9.9981 1.12505 9.9981 2.5001C9.9981 3.16263 10.2606 3.76265 10.6731 4.21266C10.5356 4.28767 10.4106 4.3752 10.2981 4.4752C9.82309 4.85022 9.44807 5.37521 9.18556 6.01274C8.74805 7.05028 8.74805 8.08783 8.74805 8.12533C8.74805 8.47534 9.02306 8.75035 9.37307 8.75035H15.6233C15.9733 8.75035 16.2483 8.47534 16.2483 8.12533C16.2483 8.11283 16.2483 8.10029 16.2483 8.08779H16.2358ZM11.2356 2.5001C11.2356 1.81257 11.7982 1.25005 12.4857 1.25005C13.1732 1.25005 13.7357 1.81257 13.7357 2.5001C13.7357 3.18763 13.1732 3.75015 12.4857 3.75015C11.7982 3.75015 11.2356 3.18763 11.2356 2.5001ZM10.0481 7.5003C10.0981 7.21279 10.1856 6.85028 10.3231 6.48776C10.7356 5.48772 11.4482 5.0002 12.4857 5.0002C14.2733 5.0002 14.7858 6.58777 14.9233 7.5003H10.0481Z" fill="#567EA8"/>
<path d="M7.4878 21.8417C7.4878 21.6292 7.4378 20.7042 7.05028 19.7666C6.78777 19.1291 6.41276 18.6041 5.93774 18.2291C5.81273 18.1291 5.68773 18.0416 5.56272 17.9666C5.98774 17.5166 6.25025 16.9165 6.25025 16.254C6.25025 14.879 5.12521 13.7539 3.75015 13.7539C2.3751 13.7539 1.25005 14.879 1.25005 16.254C1.25005 16.9165 1.51256 17.5166 1.92508 17.9666C1.78757 18.0416 1.66257 18.1291 1.55006 18.2291C1.07504 18.6041 0.700028 19.1291 0.437518 19.7666C3.72544e-08 20.8042 0 21.8417 0 21.8792C0 22.2292 0.275011 22.5043 0.625025 22.5043H6.87528C7.22529 22.5043 7.5003 22.2292 7.5003 21.8792C7.5003 21.8667 7.5003 21.8542 7.5003 21.8417H7.4878ZM2.4876 16.254C2.4876 15.5665 3.05012 15.004 3.73765 15.004C4.42518 15.004 4.9877 15.5665 4.9877 16.254C4.9877 16.9415 4.42518 17.5041 3.73765 17.5041C3.05012 17.5041 2.4876 16.9415 2.4876 16.254ZM1.30005 21.2542C1.35005 20.9667 1.43756 20.6042 1.57506 20.2417C1.98758 19.2416 2.70011 18.7541 3.73765 18.7541C5.52522 18.7541 6.03774 20.3417 6.17525 21.2542H1.30005Z" fill="#567EA8"/>
<path d="M24.9858 21.8417C24.9858 21.6292 24.9358 20.7042 24.5483 19.7666C24.2858 19.1291 23.9108 18.6041 23.4358 18.2291C23.3108 18.1291 23.1858 18.0416 23.0608 17.9666C23.4858 17.5166 23.7483 16.9165 23.7483 16.254C23.7483 14.879 22.6233 13.7539 21.2482 13.7539C19.8731 13.7539 18.7481 14.879 18.7481 16.254C18.7481 16.9165 19.0106 17.5166 19.4231 17.9666C19.2856 18.0416 19.1606 18.1291 19.0481 18.2291C18.5731 18.6041 18.1981 19.1291 17.9356 19.7666C17.498 20.8042 17.498 21.8417 17.498 21.8792C17.498 22.2292 17.7731 22.5043 18.1231 22.5043H24.3733C24.7233 22.5043 24.9983 22.2292 24.9983 21.8792C24.9983 21.8667 24.9983 21.8542 24.9983 21.8417H24.9858ZM19.9856 16.254C19.9856 15.5665 20.5482 15.004 21.2357 15.004C21.9232 15.004 22.4857 15.5665 22.4857 16.254C22.4857 16.9415 21.9232 17.5041 21.2357 17.5041C20.5482 17.5041 19.9856 16.9415 19.9856 16.254ZM18.7981 21.2542C18.8481 20.9667 18.9356 20.6042 19.0731 20.2417C19.4856 19.2416 20.1982 18.7541 21.2357 18.7541C23.0233 18.7541 23.5358 20.3417 23.6733 21.2542H18.7981Z" fill="#567EA8"/>
<path d="M12.4832 24.9988C10.8581 24.9988 9.24556 24.5988 7.8205 23.8487C7.52049 23.6862 7.39549 23.3112 7.55799 22.9987C7.7205 22.6987 8.09551 22.5737 8.40803 22.7362C9.65808 23.3987 11.0706 23.7487 12.4957 23.7487C13.9207 23.7487 15.3333 23.3987 16.5834 22.7362C16.8834 22.5737 17.2709 22.6862 17.4334 22.9987C17.5959 23.2987 17.4834 23.6862 17.1709 23.8487C15.7458 24.5988 14.1333 24.9988 12.5082 24.9988H12.4832Z" fill="#567EA8"/>
<path d="M21.5226 13.1278C21.2476 13.1278 20.9976 12.9528 20.9226 12.6652C20.3475 10.5652 18.9975 8.76509 17.1474 7.59004C16.8599 7.40254 16.7724 7.01502 16.9474 6.72751C17.1349 6.44 17.5224 6.35245 17.8099 6.52746C19.9225 7.86501 21.4601 9.9151 22.1101 12.3152C22.1976 12.6527 22.0101 12.9902 21.6726 13.0902C21.6226 13.1027 21.5601 13.1152 21.5101 13.1152L21.5226 13.1278Z" fill="#567EA8"/>
<path d="M3.45152 13.1257C3.45152 13.1257 3.33901 13.1257 3.28901 13.1007C2.9515 13.0132 2.76399 12.6632 2.85149 12.3257C3.51402 9.9256 5.03908 7.86301 7.15167 6.53796C7.43918 6.35045 7.82669 6.438 8.0142 6.73801C8.20171 7.02552 8.1142 7.41304 7.81419 7.60055C5.96412 8.76309 4.62656 10.5757 4.03904 12.6757C3.96404 12.9508 3.71403 13.1383 3.43902 13.1383L3.45152 13.1257Z" fill="#567EA8"/>
</svg>
