<svg width="36" height="35" viewBox="0 0 36 35" fill="none" xmlns="http://www.w3.org/2000/svg">
<g id="Group">
<path id="Vector" d="M14.5515 13.8361C14.3118 13.8361 14.0721 13.7439 13.9062 13.5597L9.99728 9.65445C9.62851 9.28603 9.62851 8.71505 9.99728 8.34663C10.3476 7.97821 10.9376 7.97821 11.3064 8.34663L15.2153 12.2519C15.584 12.6019 15.584 13.1913 15.2153 13.5597C15.0309 13.7439 14.7912 13.8361 14.5699 13.8361H14.5515Z" fill="#567EA8"/>
<path id="Vector_2" d="M25.8171 26.9316C25.5774 26.9316 25.3377 26.8395 25.1718 26.6553L21.2629 22.75C20.8941 22.4 20.8941 21.8106 21.2629 21.4422C21.6132 21.0922 22.2032 21.0922 22.572 21.4422L26.4809 25.3474C26.8496 25.7159 26.8496 26.2868 26.4809 26.6553C26.2965 26.8395 26.0568 26.9316 25.8356 26.9316H25.8171Z" fill="#567EA8"/>
<path id="Vector_3" d="M10.6426 26.9316C10.4029 26.9316 10.1632 26.8395 9.99728 26.6553C9.62851 26.3053 9.62851 25.7159 9.99728 25.3474L13.9062 21.4422C14.2749 21.0922 14.8465 21.0922 15.2153 21.4422C15.584 21.8106 15.584 22.3816 15.2153 22.75L11.3064 26.6553C11.122 26.8395 10.8823 26.9316 10.661 26.9316H10.6426Z" fill="#567EA8"/>
<path id="Vector_4" d="M21.9082 13.8361C21.6685 13.8361 21.4288 13.7439 21.2629 13.5597C20.8941 13.1913 20.8941 12.6203 21.2629 12.2519L25.1718 8.34663C25.5405 7.97821 26.1121 7.97821 26.4809 8.34663C26.8496 8.69663 26.8496 9.28603 26.4809 9.65445L22.572 13.5597C22.3876 13.7439 22.1479 13.8361 21.9267 13.8361H21.9082Z" fill="#567EA8"/>
<path id="Vector_5" d="M18.2188 12.8947C17.7025 12.8947 17.2969 12.4895 17.2969 11.9737V0.921053C17.2969 0.405263 17.7025 0 18.2188 0C18.735 0 19.1407 0.405263 19.1407 0.921053V11.9737C19.1407 12.4895 18.735 12.8947 18.2188 12.8947Z" fill="#567EA8"/>
<path id="Vector_6" d="M12.6879 18.4202H1.62503C1.10876 18.4202 0.703125 18.015 0.703125 17.4992C0.703125 16.9834 1.10876 16.5781 1.62503 16.5781H12.6879C13.2042 16.5781 13.6098 16.9834 13.6098 17.4992C13.6098 18.015 13.2042 18.4202 12.6879 18.4202Z" fill="#567EA8"/>
<path id="Vector_7" d="M18.2188 35.0002C17.7025 35.0002 17.2969 34.5949 17.2969 34.0792V23.0265C17.2969 22.5107 17.7025 22.1055 18.2188 22.1055C18.735 22.1055 19.1407 22.5107 19.1407 23.0265V34.0792C19.1407 34.5949 18.735 35.0002 18.2188 35.0002Z" fill="#567EA8"/>
<path id="Vector_8" d="M34.8129 18.4202H23.75C23.2338 18.4202 22.8281 18.015 22.8281 17.4992C22.8281 16.9834 23.2338 16.5781 23.75 16.5781H34.8129C35.3292 16.5781 35.7348 16.9834 35.7348 17.4992C35.7348 18.015 35.3292 18.4202 34.8129 18.4202Z" fill="#567EA8"/>
<path id="Vector_9" d="M18.2188 20.2626C16.6885 20.2626 15.4531 19.0284 15.4531 17.4995C15.4531 15.9705 16.6885 14.7363 18.2188 14.7363C19.7492 14.7363 20.9846 15.9705 20.9846 17.4995C20.9846 19.0284 19.7492 20.2626 18.2188 20.2626ZM18.2188 16.5784C17.7026 16.5784 17.2969 16.9837 17.2969 17.4995C17.2969 18.0153 17.7026 18.4205 18.2188 18.4205C18.7351 18.4205 19.1407 18.0153 19.1407 17.4995C19.1407 16.9837 18.7351 16.5784 18.2188 16.5784Z" fill="#567EA8"/>
</g>
</svg>
