<svg width="28" height="35" viewBox="0 0 28 35" fill="none" xmlns="http://www.w3.org/2000/svg">
<g id="Group">
<path id="Vector" d="M23.0651 31.3109H4.62698C4.11072 31.3109 3.70508 30.9056 3.70508 30.3898C3.70508 29.874 4.11072 29.4688 4.62698 29.4688H23.0651C23.5814 29.4688 23.987 29.874 23.987 30.3898C23.987 30.9056 23.5814 31.3109 23.0651 31.3109Z" fill="#567EA8"/>
<path id="Vector_2" d="M26.749 3.68421C26.2327 3.68421 25.8271 4.08947 25.8271 4.60526V32.2368C25.8271 32.7526 25.4214 33.1579 24.9051 33.1579H4.6232C3.09284 33.1579 1.85749 31.9237 1.85749 30.3947C1.85749 28.8658 3.09284 27.6316 4.6232 27.6316H21.2175C22.7479 27.6316 23.9832 26.3974 23.9832 24.8684V2.76316C23.9832 1.23421 22.7479 0 21.2175 0H2.77939C1.24903 0 0.0136719 1.23421 0.0136719 2.76316V30.3947C0.0136719 32.9368 2.07874 35 4.6232 35H24.9051C26.4355 35 27.6709 33.7658 27.6709 32.2368V4.60526C27.6709 4.08947 27.2652 3.68421 26.749 3.68421ZM7.38892 1.84211H11.0766V13.4289L9.87808 12.2316C9.52776 11.8632 8.93775 11.8632 8.56899 12.2316L7.37047 13.4289V1.84211H7.38892ZM1.85749 2.76316C1.85749 2.24737 2.26312 1.84211 2.77939 1.84211H5.54511V15.6579C5.54511 16.0263 5.76636 16.3579 6.11669 16.5053C6.46701 16.6527 6.85423 16.5789 7.11236 16.3026L9.23274 14.1842L11.3531 16.3026C11.5375 16.4868 11.7588 16.5789 11.9985 16.5789C12.1091 16.5789 12.2382 16.5606 12.3488 16.5053C12.6991 16.3579 12.9204 16.0263 12.9204 15.6579V1.84211H21.2175C21.7338 1.84211 22.1394 2.24737 22.1394 2.76316V24.8684C22.1394 25.3842 21.7338 25.7895 21.2175 25.7895H4.6232C3.59067 25.7895 2.63189 26.1395 1.85749 26.7105V2.76316Z" fill="#567EA8"/>
</g>
</svg>
