<svg width="31" height="35" viewBox="0 0 31 35" fill="none" xmlns="http://www.w3.org/2000/svg">
<g id="Group">
<path id="Vector" d="M27.5076 35H2.98485C1.53101 35 0.357422 33.8275 0.357422 32.375V9.625C0.357422 8.1725 1.53101 7 2.98485 7H27.5076C28.9614 7 30.135 8.1725 30.135 9.625V32.375C30.135 33.8275 28.9614 35 27.5076 35ZM2.98485 8.75C2.4944 8.75 2.10904 9.135 2.10904 9.625V32.375C2.10904 32.865 2.4944 33.25 2.98485 33.25H27.5076C27.998 33.25 28.3834 32.865 28.3834 32.375V9.625C28.3834 9.135 27.998 8.75 27.5076 8.75H2.98485Z" fill="#567EA8"/>
<path id="Vector_2" d="M27.5079 5.25H2.98519C2.49473 5.25 2.10938 4.865 2.10938 4.375C2.10938 3.885 2.49473 3.5 2.98519 3.5H27.5079C27.9983 3.5 28.3837 3.885 28.3837 4.375C28.3837 4.865 27.9983 5.25 27.5079 5.25Z" fill="#567EA8"/>
<path id="Vector_3" d="M25.7566 1.75H4.73714C4.24668 1.75 3.86133 1.365 3.86133 0.875C3.86133 0.385 4.24668 0 4.73714 0H25.7566C26.2471 0 26.6324 0.385 26.6324 0.875C26.6324 1.365 26.2471 1.75 25.7566 1.75Z" fill="#567EA8"/>
<path id="Vector_4" d="M22.8126 15.9405C22.6024 15.7655 22.3397 15.713 22.0945 15.7655L13.3364 17.5155C12.9335 17.603 12.6357 17.953 12.6357 18.373V23.098C12.1278 22.888 11.5322 22.748 10.8841 22.748C8.92229 22.748 7.38086 23.903 7.38086 25.373C7.38086 26.843 8.92229 27.998 10.8841 27.998C12.8459 27.998 14.3873 26.843 14.3873 25.373V19.0905L21.3938 17.6905V21.3305C20.8859 21.1205 20.2903 20.9805 19.6422 20.9805C17.6804 20.9805 16.139 22.1355 16.139 23.6055C16.139 25.0755 17.6804 26.2305 19.6422 26.2305C21.604 26.2305 23.1455 25.0755 23.1455 23.6055V16.6055C23.1455 16.343 23.0228 16.098 22.8301 15.923L22.8126 15.9405ZM10.8666 26.248C9.79808 26.248 9.11495 25.723 9.11495 25.373C9.11495 25.023 9.79808 24.498 10.8666 24.498C11.9351 24.498 12.6182 25.023 12.6182 25.373C12.6182 25.723 11.9351 26.248 10.8666 26.248ZM19.6247 24.498C18.5562 24.498 17.8731 23.973 17.8731 23.623C17.8731 23.273 18.5562 22.748 19.6247 22.748C20.6932 22.748 21.3763 23.273 21.3763 23.623C21.3763 23.973 20.6932 24.498 19.6247 24.498Z" fill="#567EA8"/>
</g>
</svg>
