<svg width="9" height="26" viewBox="0 0 9 26" fill="none" xmlns="http://www.w3.org/2000/svg">
<path id="Vector" d="M8.73215 22.5328L6.28214 6.10777C6.65714 5.77027 7.01964 5.3328 7.39464 4.8078C8.09464 3.8078 8.54465 2.82031 8.55715 2.78281C8.78215 2.28281 8.76966 1.78281 8.50716 1.38281C8.25716 0.982813 7.79466 0.757812 7.25716 0.757812H1.48215C0.944649 0.757812 0.482149 0.982813 0.232149 1.38281C-0.0178509 1.78281 -0.0428425 2.28281 0.182158 2.78281C0.207158 2.82031 0.657148 3.8078 1.34465 4.8078C1.70715 5.3328 2.06965 5.75777 2.44465 6.10777L0.00715828 22.5453C-0.0303417 22.7828 0.0821598 23.0203 0.28216 23.1578L4.03216 25.6578C4.13216 25.7328 4.25716 25.7578 4.38216 25.7578C4.50716 25.7578 4.61966 25.7203 4.73216 25.6578L8.48216 23.1578C8.68216 23.0203 8.79466 22.7828 8.75716 22.5453L8.73215 22.5328ZM1.30715 2.25783C1.24465 2.12033 1.25715 2.05777 1.26965 2.04527C1.26965 2.04527 1.33216 1.9953 1.46966 1.9953H7.24465C7.39465 1.9953 7.44465 2.03277 7.45715 2.04527C7.45715 2.04527 7.48215 2.12033 7.41965 2.25783C7.03215 3.10783 6.15715 4.60778 5.26965 5.33278C5.24465 5.35778 5.20716 5.38278 5.18216 5.40778C4.90716 5.62028 4.61965 5.7453 4.36965 5.7453C3.83215 5.7453 3.10715 5.14529 2.38215 4.09529C1.74465 3.18279 1.31966 2.25782 1.31966 2.24532L1.30715 2.25783ZM4.35715 24.3828L1.28214 22.3328L3.56965 6.85782C3.83215 6.95782 4.09466 7.00781 4.34466 7.00781C4.59466 7.00781 4.85716 6.95782 5.10716 6.85782L7.41965 22.3328L4.34466 24.3828H4.35715Z" fill="#567EA8"/>
</svg>
