<svg width="20" height="26" viewBox="0 0 20 26" fill="none" xmlns="http://www.w3.org/2000/svg">
<g id="Group">
<path id="Vector" d="M17.7368 11.2841H16.8553C16.4605 9.63939 15.5921 8.16573 14.3948 7.03415L13.4079 2.5606C13.1842 1.54744 12.1974 0.757812 11.1711 0.757812H5.9079C4.86843 0.757812 3.89474 1.54744 3.67105 2.5606L2.68421 7.03415C1.02632 8.59994 0 10.8104 0 13.2578C0 15.7052 1.03947 17.9157 2.68421 19.4815L3.67105 23.955C3.89474 24.9682 4.88159 25.7578 5.9079 25.7578H11.1711C12.2105 25.7578 13.1842 24.9682 13.4079 23.955L14.3948 19.4815C15.5921 18.3499 16.4605 16.8894 16.8553 15.2315H17.7368C18.829 15.2315 19.7105 14.3499 19.7105 13.2578C19.7105 12.1657 18.829 11.2841 17.7368 11.2841ZM4.93421 2.83686C5.02632 2.42897 5.47369 2.0736 5.89474 2.0736H11.1579C11.5658 2.0736 12.0263 2.44213 12.1184 2.83686L12.7763 5.8369C11.5263 5.11322 10.0658 4.70518 8.52632 4.70518C6.98685 4.70518 5.52632 5.11322 4.27632 5.8369L4.93421 2.83686ZM12.1053 23.6656C12.0132 24.0735 11.5658 24.4289 11.1447 24.4289H5.88158C5.47369 24.4289 5.01317 24.0603 4.92106 23.6656L4.26317 20.6656C5.51317 21.3892 6.9737 21.7973 8.51317 21.7973C10.0526 21.7973 11.5132 21.3892 12.7632 20.6656L12.1053 23.6656ZM8.51317 20.4815C4.52633 20.4815 1.27632 17.2315 1.27632 13.2446C1.27632 9.2578 4.52633 6.0078 8.51317 6.0078C12.5 6.0078 15.75 9.2578 15.75 13.2446C15.75 17.2315 12.5 20.4815 8.51317 20.4815ZM17.7237 13.9025H17.0395C17.0526 13.6789 17.0658 13.4683 17.0658 13.2446C17.0658 13.021 17.0658 12.7973 17.0395 12.5867H17.7237C18.0921 12.5867 18.3816 12.8762 18.3816 13.2446C18.3816 13.6131 18.0921 13.9025 17.7237 13.9025Z" fill="#567EA8"/>
<path id="Vector_2" d="M8.52194 13.9196C8.41668 13.9196 8.32457 13.8932 8.23246 13.8537L5.60089 12.5379C5.27194 12.38 5.14036 11.9854 5.31141 11.6564C5.4693 11.3275 5.86405 11.196 6.193 11.367L8.48247 12.5116L12.114 10.0907C12.4167 9.89336 12.8246 9.97217 13.0219 10.2748C13.2193 10.5774 13.1404 10.9852 12.8377 11.1826L8.89036 13.8142C8.7851 13.8931 8.65352 13.9196 8.52194 13.9196Z" fill="#567EA8"/>
</g>
</svg>
